<svg xmlns="http://www.w3.org/2000/svg" width="800" height="500" viewBox="0 0 800 500">
<rect width="800" height="500" fill="#0F1922"/>
<g stroke="#1C2A36" stroke-width="1"><line x1="40" y1="180" x2="760" y2="180"/><line x1="40" y1="236" x2="760" y2="236"/><line x1="40" y1="292" x2="760" y2="292"/><line x1="40" y1="348" x2="760" y2="348"/><line x1="40" y1="404" x2="760" y2="404"/><line x1="40" y1="460" x2="760" y2="460"/></g>
<text x="64" y="104" style="font:700 56px 'Segoe UI', -apple-system, BlinkMacSystemFont, 'Helvetica Neue', Arial, sans-serif;fill:#EAF2F8;letter-spacing:-1px">Borsa Takip</text>
<text x="66" y="142" style="font:400 21px 'Segoe UI', -apple-system, BlinkMacSystemFont, 'Helvetica Neue', Arial, sans-serif;fill:#8FA3B3">BIST · RSI, MACD, Bollinger · fırsat skoru</text>
<g transform="translate(0,90)"><line x1="71" y1="306" x2="71" y2="276" stroke="#3FBF8A" stroke-width="2"/><rect x="64" y="287" width="14" height="13" rx="2" fill="#3FBF8A"/><line x1="97" y1="296" x2="97" y2="254" stroke="#3FBF8A" stroke-width="2"/><rect x="90" y="261" width="14" height="26" rx="2" fill="#3FBF8A"/><line x1="123" y1="270" x2="123" y2="231" stroke="#3FBF8A" stroke-width="2"/><rect x="116" y="235" width="14" height="26" rx="2" fill="#3FBF8A"/><line x1="149" y1="240" x2="149" y2="223" stroke="#3FBF8A" stroke-width="2"/><rect x="142" y="228" width="14" height="8" rx="2" fill="#3FBF8A"/><line x1="175" y1="240" x2="175" y2="214" stroke="#3FBF8A" stroke-width="2"/><rect x="168" y="220" width="14" height="8" rx="2" fill="#3FBF8A"/><line x1="201" y1="230" x2="201" y2="188" stroke="#3FBF8A" stroke-width="2"/><rect x="194" y="202" width="14" height="18" rx="2" fill="#3FBF8A"/><line x1="227" y1="210" x2="227" y2="187" stroke="#3FBF8A" stroke-width="2"/><rect x="220" y="201" width="14" height="2" rx="2" fill="#3FBF8A"/><line x1="253" y1="214" x2="253" y2="167" stroke="#3FBF8A" stroke-width="2"/><rect x="246" y="174" width="14" height="27" rx="2" fill="#3FBF8A"/><line x1="279" y1="180" x2="279" y2="145" stroke="#3FBF8A" stroke-width="2"/><rect x="272" y="152" width="14" height="22" rx="2" fill="#3FBF8A"/><line x1="305" y1="170" x2="305" y2="143" stroke="#E5675C" stroke-width="2"/><rect x="298" y="152" width="14" height="12" rx="2" fill="#E5675C"/><line x1="331" y1="174" x2="331" y2="155" stroke="#E5675C" stroke-width="2"/><rect x="324" y="164" width="14" height="3" rx="2" fill="#E5675C"/><line x1="357" y1="171" x2="357" y2="135" stroke="#3FBF8A" stroke-width="2"/><rect x="350" y="141" width="14" height="26" rx="2" fill="#3FBF8A"/><line x1="383" y1="154" x2="383" y2="134" stroke="#E5675C" stroke-width="2"/><rect x="376" y="141" width="14" height="5" rx="2" fill="#E5675C"/><line x1="409" y1="154" x2="409" y2="138" stroke="#E5675C" stroke-width="2"/><rect x="402" y="145" width="14" height="2" rx="2" fill="#E5675C"/><line x1="435" y1="167" x2="435" y2="139" stroke="#E5675C" stroke-width="2"/><rect x="428" y="146" width="14" height="11" rx="2" fill="#E5675C"/><line x1="461" y1="165" x2="461" y2="143" stroke="#3FBF8A" stroke-width="2"/><rect x="454" y="156" width="14" height="2" rx="2" fill="#3FBF8A"/><line x1="487" y1="170" x2="487" y2="142" stroke="#E5675C" stroke-width="2"/><rect x="480" y="156" width="14" height="7" rx="2" fill="#E5675C"/><line x1="513" y1="171" x2="513" y2="128" stroke="#3FBF8A" stroke-width="2"/><rect x="506" y="140" width="14" height="23" rx="2" fill="#3FBF8A"/><line x1="539" y1="148" x2="539" y2="114" stroke="#3FBF8A" stroke-width="2"/><rect x="532" y="118" width="14" height="22" rx="2" fill="#3FBF8A"/><line x1="565" y1="134" x2="565" y2="108" stroke="#E5675C" stroke-width="2"/><rect x="558" y="118" width="14" height="4" rx="2" fill="#E5675C"/><line x1="591" y1="144" x2="591" y2="111" stroke="#E5675C" stroke-width="2"/><rect x="584" y="122" width="14" height="15" rx="2" fill="#E5675C"/><line x1="617" y1="147" x2="617" y2="128" stroke="#E5675C" stroke-width="2"/><rect x="610" y="137" width="14" height="2" rx="2" fill="#E5675C"/><line x1="643" y1="164" x2="643" y2="129" stroke="#E5675C" stroke-width="2"/><rect x="636" y="137" width="14" height="13" rx="2" fill="#E5675C"/><line x1="669" y1="159" x2="669" y2="139" stroke="#E5675C" stroke-width="2"/><rect x="662" y="150" width="14" height="4" rx="2" fill="#E5675C"/><line x1="695" y1="171" x2="695" y2="142" stroke="#E5675C" stroke-width="2"/><rect x="688" y="154" width="14" height="3" rx="2" fill="#E5675C"/><line x1="721" y1="165" x2="721" y2="132" stroke="#3FBF8A" stroke-width="2"/><rect x="714" y="142" width="14" height="15" rx="2" fill="#3FBF8A"/></g>
<rect x="612" y="40" width="124" height="44" rx="22" fill="#16302A" stroke="#3FBF8A"/>
<text x="674" y="69" text-anchor="middle" style="font:700 18px 'Segoe UI', -apple-system, BlinkMacSystemFont, 'Helvetica Neue', Arial, sans-serif;fill:#3FBF8A">skor 72</text>
</svg>